<?xml version="1.0" standalone="no"?>
<!DOCTYPE svg PUBLIC "-//W3C//DTD SVG 1.1//EN" "http://www.w3.org/Graphics/SVG/1.1/DTD/svg11.dtd" >
<svg>
<metadata>
Created by FontForge 20090622 at Thu Jan  7 15:29:51 2016
 By deploy user
Copyright (c) 2011 Fontstage (info@fontstage.com), with Reserved Font Name "Passion"
</metadata>
<defs>
<font id="PassionOne-Black" horiz-adv-x="500" >
  <font-face 
    font-family="Passion One"
    font-weight="900"
    font-stretch="normal"
    units-per-em="1000"
    panose-1="2 0 5 3 8 0 0 2 0 4"
    ascent="800"
    descent="-200"
    x-height="479"
    cap-height="621"
    bbox="-68 -226 1469 790"
    underline-thickness="50"
    underline-position="-50"
    unicode-range="U+0020-U+FB04"
  />
<missing-glyph horiz-adv-x="175" 
 />
    <glyph glyph-name=".notdef" horiz-adv-x="175" 
 />
    <glyph glyph-name=".null" horiz-adv-x="0" 
 />
    <glyph glyph-name="nonmarkingreturn" horiz-adv-x="333" 
 />
    <glyph glyph-name="space" unicode=" " horiz-adv-x="175" 
 />
    <glyph glyph-name="exclam" unicode="!" horiz-adv-x="272" 
d="M34 176l-14 439h242l-17 -439h-211zM30 59v31q0 37 21.5 52.5t71.5 15.5h31q55 0 76.5 -15.5t21.5 -52.5v-31q0 -38 -22 -53.5t-78 -15.5h-32q-49 0 -69.5 15t-20.5 54z" />
    <glyph glyph-name="quotedbl" unicode="&#x22;" horiz-adv-x="487" 
d="M20 551v31q0 37 21.5 52.5t71.5 15.5h31q55 0 76.5 -15.5t21.5 -52.5v-34q0 -53 -24.5 -90.5t-78.5 -70.5h-78l29 95h-10q-33 0 -46.5 15t-13.5 54zM255 551v31q0 37 21.5 52.5t71.5 15.5h31q55 0 76.5 -15.5t21.5 -52.5v-34q0 -53 -24.5 -90.5t-78.5 -70.5h-78l29 95
h-10q-33 0 -46.5 15t-13.5 54z" />
    <glyph glyph-name="numbersign" unicode="#" horiz-adv-x="560" 
d="M552 309h-63l-2 -22h52v-146h-67l-15 -141h-195l15 141h-25l-15 -141h-203l18 141h-44v146h58l3 22h-47v143h60l19 139h196l-15 -139h22l15 139h198l-15 -139h50v-143zM291 314h-24l-4 -32h24z" />
    <glyph glyph-name="dollar" unicode="$" horiz-adv-x="529" 
d="M16.5 311.5q-16.5 40.5 -16.5 108.5t38 121t111 75v77h232v-67q53 -5 132 -17l-19 -199l-223 34v-19q134 -18 196 -64.5t62 -158.5q0 -158 -147 -198v-68h-233v60q-50 4 -130 24l8 182l230 -44v18q-67 14 -109 28.5t-78.5 40.5t-53 66.5z" />
    <glyph glyph-name="percent" unicode="%" horiz-adv-x="1051" 
d="M369.5 579.5q40.5 -50.5 40.5 -175t-40.5 -174t-162 -49.5t-162.5 49.5t-41 174t41 175t162.5 50.5t162 -50.5zM1006.5 388.5q40.5 -50.5 40.5 -175t-40.5 -174t-162 -49.5t-162.5 49.5t-41 174t41 175t162.5 50.5t162 -50.5zM694 621l-128 -621h-207l127 621h208z
M221 298v194h-25v-194h25zM858 107v194h-25v-194h25z" />
    <glyph glyph-name="ampersand" unicode="&#x26;" horiz-adv-x="698" 
d="M279 -10q-279 0 -279 189q0 68 29 105.5t86 60.5v4q-56 44 -56 111q0 171 255 171q123 0 188.5 -42t65.5 -116.5t-30.5 -108.5t-103.5 -59v-4l51 -51h4v55h198v-53q0 -78 -41 -118l2 -4h50l-8 -140h-102q-86 0 -133 25h-8q-78 -25 -168 -25zM336 385v82h-36v-82h36z
M317 130l-79 76v-57q0 -19 20 -19h59z" />
    <glyph glyph-name="quotesingle" unicode="'" horiz-adv-x="252" 
d="M10 551v31q0 37 21.5 52.5t71.5 15.5h31q55 0 76.5 -15.5t21.5 -52.5v-34q0 -53 -24.5 -90.5t-78.5 -70.5h-78l29 95h-10q-33 0 -46.5 15t-13.5 54z" />
    <glyph glyph-name="parenleft" unicode="(" horiz-adv-x="402" 
d="M210 645l196 -50q-118 -145 -118 -336t118 -365l-204 -41q-94 87 -142 179t-48 219.5t48 220.5t150 173z" />
    <glyph glyph-name="parenright" unicode=")" horiz-adv-x="402" 
d="M342 471q48 -94 48 -218t-49 -219t-142 -181l-203 41q120 161 120 357.5t-120 342.5l197 51q101 -80 149 -174z" />
    <glyph glyph-name="asterisk" unicode="*" horiz-adv-x="486" 
d="M478 446l-95 -30l68 -90l-127 -78l-78 82l-73 -81l-126 74l54 91l-93 32l28 120l116 -19l11 93h165l8 -93l109 19z" />
    <glyph glyph-name="plus" unicode="+" horiz-adv-x="449" 
d="M127 87v101h-112v190h112v120h194v-120h113v-190h-113v-101h-194z" />
    <glyph glyph-name="comma" unicode="," horiz-adv-x="242" 
d="M10 59v31q0 37 21.5 52.5t71.5 15.5h31q55 0 76.5 -15.5t21.5 -52.5v-34q0 -53 -24.5 -90.5t-78.5 -70.5h-78l29 95h-10q-33 0 -46.5 15t-13.5 54z" />
    <glyph glyph-name="hyphen" unicode="-" horiz-adv-x="388" 
d="M373 146h-358v194h358v-194z" />
    <glyph glyph-name="period" unicode="." horiz-adv-x="242" 
d="M10 59v31q0 37 21.5 52.5t71.5 15.5h31q55 0 76.5 -15.5t21.5 -52.5v-31q0 -38 -22 -53.5t-78 -15.5h-32q-49 0 -69.5 15t-20.5 54z" />
    <glyph glyph-name="slash" unicode="/" horiz-adv-x="383" 
d="M393 621l-156 -758h-247l155 758h248z" />
    <glyph glyph-name="zero" unicode="0" horiz-adv-x="583" 
d="M569.5 455.5q11.5 -56.5 11.5 -146t-11.5 -145.5t-43 -97.5t-88.5 -59t-146.5 -17.5t-146.5 17.5t-88.5 59t-43 97.5t-11.5 145.5t11.5 146t43 98t88 59.5t146.5 18t147 -18t88.5 -59.5t43 -98zM312 157v278h-36v-278h36z" />
    <glyph glyph-name="one" unicode="1" horiz-adv-x="359" 
d="M339 0h-282v397h-57v163l92 61h247v-621z" />
    <glyph glyph-name="two" unicode="2" horiz-adv-x="505" 
d="M248 630q254 0 254 -190q0 -76 -28 -128t-89 -112v-6h115v-194h-476l-6 153q144 129 144 208q0 30 -30 30q-24 0 -111 -15l-19 224q112 30 246 30z" />
    <glyph glyph-name="three" unicode="3" horiz-adv-x="520" 
d="M0 598q127 32 253.5 32t190.5 -41.5t64 -132.5q0 -49 -15.5 -78.5t-54.5 -53.5v-4q80 -38 80 -140t-62 -146t-192 -44t-249 24l18 192q144 -16 156 -16t16.5 4t4.5 15.5t-5 15t-19 3.5h-136v147h136q11 0 15.5 4t4.5 14t-5 14t-26.5 4t-155.5 -21z" />
    <glyph glyph-name="four" unicode="4" horiz-adv-x="577" 
d="M569 97h-43v-97h-282v97h-229l-15 139l143 385h383v-358h51zM259 259v84h-36v-84h36z" />
    <glyph glyph-name="five" unicode="5" horiz-adv-x="511" 
d="M460.5 361.5q46.5 -40.5 46.5 -147t-62 -165.5t-203 -59q-108 0 -230 25l14 193q182 -16 199 -16t20.5 3t3.5 12q0 16 -16 16l-225 8v390h467v-198h-226v-25q38 4 59 4q106 0 152.5 -40.5z" />
    <glyph glyph-name="six" unicode="6" horiz-adv-x="568" 
d="M279 400h68q117 0 172 -44t55 -149.5t-65.5 -161t-215.5 -55.5t-220.5 71.5t-70.5 224.5q0 180 90 257.5t284 77.5h160l-11 -198h-219q-27 0 -27 -23zM311 143v117h-36v-117h36z" />
    <glyph glyph-name="seven" unicode="7" horiz-adv-x="469" 
d="M465 452l-118 -452h-327l120 397h-140v224h465v-169z" />
    <glyph glyph-name="eight" unicode="8" horiz-adv-x="579" 
d="M288 631q278 0 278 -172q0 -56 -18.5 -86.5t-67.5 -55.5v-6q52 -13 73.5 -44.5t21.5 -85.5q0 -99 -72 -145t-209 -46q-290 0 -290 183q0 100 95 135v6q-47 24 -67.5 55.5t-20.5 85.5q0 88 74.5 132t202.5 44zM310 129v123h-36v-123h36zM310 368v104h-36v-104h36z" />
    <glyph glyph-name="nine" unicode="9" horiz-adv-x="568" 
d="M289 205h-72q-112 0 -167.5 43.5t-55.5 150.5q0 222 276 222q159 0 227.5 -74.5t68.5 -241t-90 -241t-284 -74.5h-160l11 192h221q14 0 19.5 5t5.5 18zM257 443v-117h36v117h-36z" />
    <glyph glyph-name="colon" unicode=":" horiz-adv-x="242" 
d="M10 59v31q0 37 21.5 52.5t71.5 15.5h31q55 0 76.5 -15.5t21.5 -52.5v-31q0 -38 -22 -53.5t-78 -15.5h-32q-49 0 -69.5 15t-20.5 54zM10 359v31q0 37 21.5 52.5t71.5 15.5h31q55 0 76.5 -15.5t21.5 -52.5v-31q0 -38 -22 -53.5t-78 -15.5h-32q-49 0 -69.5 15t-20.5 54z" />
    <glyph glyph-name="semicolon" unicode=";" horiz-adv-x="242" 
d="M10 59v31q0 37 21.5 52.5t71.5 15.5h31q55 0 76.5 -15.5t21.5 -52.5v-34q0 -53 -24.5 -90.5t-78.5 -70.5h-78l29 95h-10q-33 0 -46.5 15t-13.5 54zM10 359v31q0 37 21.5 52.5t71.5 15.5h31q55 0 76.5 -15.5t21.5 -52.5v-31q0 -38 -22 -53.5t-78 -15.5h-32q-49 0 -69.5 15
t-20.5 54z" />
    <glyph glyph-name="less" unicode="&#x3c;" horiz-adv-x="342" 
d="M327 -21l-322 220v132l322 220v-229l-83 -56l83 -55v-232z" />
    <glyph glyph-name="equal" unicode="=" horiz-adv-x="448" 
d="M428 270h-408v159h408v-159zM428 86h-408v160h408v-160z" />
    <glyph glyph-name="greater" unicode="&#x3e;" horiz-adv-x="342" 
d="M337 199l-322 -220v232l83 55l-83 56v229l322 -220v-132z" />
    <glyph glyph-name="question" unicode="?" horiz-adv-x="392" 
d="M392 438q0 -85 -31 -130.5t-108 -73.5v-59h-206v103q0 37 13.5 52.5t44 28t38 21t7.5 23.5q0 28 -30 28q-21 0 -110 -11v192q88 13 158 13q224 0 224 -187zM39 59v31q0 37 21.5 52.5t71.5 15.5h31q55 0 76.5 -15.5t21.5 -52.5v-31q0 -38 -22 -53.5t-78 -15.5h-32
q-49 0 -69.5 15t-20.5 54z" />
    <glyph glyph-name="at" unicode="@" horiz-adv-x="1052" 
d="M321 455q53 36 202 36t204 -28t55 -107v-195h20v195q0 92 -62.5 124t-223.5 32t-216.5 -42t-55.5 -183v-141q0 -101 41 -138.5t134 -37.5h384v-164q-181 -23 -294.5 -23t-180.5 5.5t-127 23.5t-94 48t-59 82t-34.5 123.5t-9.5 191.5t24.5 205.5t89 139.5t166 74.5
t236 20.5t210 -8.5t132.5 -29.5t92 -51.5t56.5 -79.5t29.5 -108t8 -144t-9 -136t-35.5 -87t-73.5 -49.5t-125 -13.5h-164q-61 0 -86 31h-4q-25 -31 -89 -31h-43q-83 0 -118.5 35.5t-35.5 126t23 114t122 23.5h122v17h-264q0 113 53 149zM513 194v-80h20v80h-20z" />
    <glyph glyph-name="A" unicode="A" horiz-adv-x="665" 
d="M673 0h-290l-16 95h-78l-17 -95h-280l121 621h439zM345 228v124h-32v-124h32z" />
    <glyph glyph-name="B" unicode="B" horiz-adv-x="631" 
d="M627 183q0 -90 -52 -136.5t-173 -46.5h-382v621h378q217 0 217 -164q0 -51 -12.5 -79t-47.5 -48v-4q72 -28 72 -143zM332 127v123h-32v-123h32zM332 364v104h-32v-104h32z" />
    <glyph glyph-name="C" unicode="C" horiz-adv-x="468" 
d="M349.5 234q11.5 -15 32.5 -15t63 8l15 -227q-72 -10 -135 -10q-162 0 -240.5 76.5t-78.5 248t81 243.5t254 72q44 0 119 -10l-17 -239q-40 5 -61.5 5t-32.5 -14t-11 -68.5t11.5 -69.5z" />
    <glyph glyph-name="D" unicode="D" horiz-adv-x="637" 
d="M631 324q0 -324 -342 -324h-269v621h275q183 0 259.5 -76.5t76.5 -220.5zM326 157v278h-32v-278h32z" />
    <glyph glyph-name="E" unicode="E" horiz-adv-x="489" 
d="M470 0h-450v621h469l-15 -204h-172v-36h168l-10 -166h-158v-36h183z" />
    <glyph glyph-name="F" unicode="F" horiz-adv-x="478" 
d="M302 220v-220h-282v621h458l-15 -204h-161v-36h158l-10 -161h-148z" />
    <glyph glyph-name="G" unicode="G" horiz-adv-x="613" 
d="M556 392q-189 18 -205.5 18t-21 -5t-4.5 -22v-226h32v181h246v-338h-194l-10 26h-4q-52 -36 -136 -36q-253 0 -253 323q0 160 76.5 238.5t254.5 78.5q103 0 245 -24z" />
    <glyph glyph-name="H" unicode="H" horiz-adv-x="640" 
d="M620 0h-284v218h-32v-218h-284v621h284v-231h32v231h284v-621z" />
    <glyph glyph-name="I" unicode="I" horiz-adv-x="322" 
d="M302 0h-282v621h282v-621z" />
    <glyph glyph-name="J" unicode="J" horiz-adv-x="353" 
d="M333 621v-490q0 -78 -31 -109.5t-123 -31.5h-168l-11 181h51v450h282z" />
    <glyph glyph-name="K" unicode="K" horiz-adv-x="661" 
d="M659 0h-291l-41 216h-10v-216h-282v621h282v-252h10l52 252h282l-68 -312z" />
    <glyph glyph-name="L" unicode="L" horiz-adv-x="406" 
d="M392 0h-372v621h282v-422h104z" />
    <glyph glyph-name="M" unicode="M" horiz-adv-x="817" 
d="M807 0h-241l-9 249h-9l-26 -249h-229l-23 249h-8l-11 -249h-231l26 621h328l31 -226h14l26 226h336z" />
    <glyph glyph-name="N" unicode="N" horiz-adv-x="652" 
d="M632 0h-256l-113 199v-199h-243v621h263l104 -201v201h245v-621z" />
    <glyph glyph-name="O" unicode="O" horiz-adv-x="670" 
d="M82.5 555.5q76.5 74.5 253.5 74.5t252.5 -73.5t75.5 -240t-78 -246.5t-252.5 -80t-251 79t-76.5 245.5t76.5 241zM357 157v278h-32v-278h32z" />
    <glyph glyph-name="P" unicode="P" horiz-adv-x="594" 
d="M331 173h-29v-173h-282v621h299q142 0 208.5 -55t66.5 -171t-64 -169t-199 -53zM330 318v124h-32v-124h32z" />
    <glyph glyph-name="Q" unicode="Q" horiz-adv-x="670" 
d="M82.5 555.5q76.5 74.5 253.5 74.5t252.5 -73.5t75.5 -236.5q0 -200 -146 -269v-4h135l-19 -155h-95q-117 0 -167 43l-65 55q-148 0 -224.5 82t-76.5 245.5t76.5 238zM357 157v278h-32v-278h32z" />
    <glyph glyph-name="R" unicode="R" horiz-adv-x="623" 
d="M546 572q62 -49 62 -150.5t-63 -157.5l83 -264h-272l-36 193h-18v-193h-282v621h330q134 0 196 -49zM330 340v102h-32v-102h32z" />
    <glyph glyph-name="S" unicode="S" horiz-adv-x="529" 
d="M529 204q0 -214 -257 -214q-127 0 -253 30l8 182l230 -44v18q-67 14 -109 28.5t-78 40.5q-70 50 -70 159.5t66.5 167.5t189.5 58t257 -21l-19 -199l-223 34v-19q134 -18 196 -64.5t62 -156.5z" />
    <glyph glyph-name="T" unicode="T" horiz-adv-x="486" 
d="M473 419h-90v-419h-283v419h-100l10 202h476z" />
    <glyph glyph-name="U" unicode="U" horiz-adv-x="644" 
d="M304 621v-444h32v444h288v-413q0 -218 -305 -218q-145 0 -222 54t-77 162v415h284z" />
    <glyph glyph-name="V" unicode="V" horiz-adv-x="636" 
d="M636 621l-91 -621h-446l-99 621h292l24 -364h19l21 364h280z" />
    <glyph glyph-name="W" unicode="W" horiz-adv-x="816" 
d="M816 621l-47 -621h-315l-31 226h-14l-26 -226h-323l-60 621h245l17 -252h12l23 252h235l22 -252h11l15 252h236z" />
    <glyph glyph-name="X" unicode="X" horiz-adv-x="654" 
d="M660 0h-301l-32 150h-13l-34 -150h-286l98 315l-86 306h296l28 -148h12l24 148h278l-77 -306z" />
    <glyph glyph-name="Y" unicode="Y" horiz-adv-x="587" 
d="M599 621l-167 -460v-161h-282v162l-162 459h278l25 -204h12l25 204h271z" />
    <glyph glyph-name="Z" unicode="Z" horiz-adv-x="581" 
d="M579 0l-551 1l-8 154l186 262h-191l-13 204h563l8 -154l-166 -280h172v-187z" />
    <glyph glyph-name="bracketleft" unicode="[" horiz-adv-x="386" 
d="M376 -137h-332v767h332v-144h-77v-480h77v-143z" />
    <glyph glyph-name="backslash" unicode="\" horiz-adv-x="383" 
d="M146 -137l-156 758h248l155 -758h-247z" />
    <glyph glyph-name="bracketright" unicode="]" horiz-adv-x="386" 
d="M342 -137h-332v143h79v480h-79v144h332v-767z" />
    <glyph glyph-name="asciicircum" unicode="^" 
d="M373 635l68 -134h-174l-16 36h-4l-16 -36h-178l68 134h252z" />
    <glyph glyph-name="underscore" unicode="_" horiz-adv-x="400" 
d="M400 -137h-400v137h400v-137z" />
    <glyph glyph-name="grave" unicode="`" 
d="M224 511l-119 130h234l64 -130h-179z" />
    <glyph glyph-name="a" unicode="a" horiz-adv-x="547" 
d="M525 346l-5 -172q0 -24 25 -24l-14 -156q-60 -4 -96 -4q-90 0 -130 31h-5q-60 -31 -132 -31q-168 0 -168 146q0 91 70 124q37 17 82 24t114 10v21l-228 -19l-19 176q149 19 273.5 19t178.5 -33t54 -112zM256 196v-80h20v80h-20z" />
    <glyph glyph-name="b" unicode="b" horiz-adv-x="576" 
d="M572 251q0 -134 -42.5 -197.5t-162.5 -63.5q-62 0 -134 29l-4 -19h-213v630h255v-150q36 11 93.5 11t101 -14t67 -46.5t31.5 -73.5t8 -106zM289 131v190h-20v-190h20z" />
    <glyph glyph-name="c" unicode="c" horiz-adv-x="388" 
d="M300 271.5q-8 -9.5 -8 -38t7.5 -37t21 -8.5t51.5 4l11 -191q-66 -11 -116 -11q-134 0 -198.5 58.5t-64.5 182.5q0 260 266 260q63 0 118 -10l-17 -204q-38 4 -50.5 4t-20.5 -9.5z" />
    <glyph glyph-name="d" unicode="d" horiz-adv-x="583" 
d="M474 -10q-90 0 -132 30h-5q-50 -30 -115 -30q-218 0 -218 254q0 120 57.5 183.5t165.5 63.5q27 0 75 -8v147h255v-457q0 -23 24 -23l-14 -155q-67 -5 -93 -5zM309 131v190h-20v-190h20z" />
    <glyph glyph-name="e" unicode="e" horiz-adv-x="543" 
d="M541 298q0 -43 -8 -118h-265v-18q43 -5 86 -5t161 6l10 -151q-137 -22 -245 -22q-278 0 -278 247q0 254 289 254q139 0 194.5 -49.5t55.5 -143.5zM287 254v79h-20v-79h20z" />
    <glyph glyph-name="f" unicode="f" horiz-adv-x="321" 
d="M200 640q48 0 136 -6l-9 -143h-42v-17h41l-6 -149h-31v-325h-262v325h-27v149h27v19q0 76 40 111.5t133 35.5z" />
    <glyph glyph-name="g" unicode="g" horiz-adv-x="554" 
d="M235 491h319v-125h-51v-5q25 -27 25 -74q0 -75 -44.5 -110.5t-143.5 -35.5h-130v-18h199q72 0 105 -26t33 -80q0 -80 -75.5 -122t-218.5 -42q-187 0 -226 46q-17 20 -17 56t40 54v4q-48 20 -48 75q0 67 75 91v5q-71 45 -71 135.5t57.5 131t171.5 40.5zM210 -7v-18h143v18
h-143zM266 340v-95h20v95h-20z" />
    <glyph glyph-name="h" unicode="h" horiz-adv-x="570" 
d="M400 491q80 0 120 -38.5t40 -103.5v-349h-267v299h-20v-299h-263v630h255v-165q55 26 135 26z" />
    <glyph glyph-name="i" unicode="i" horiz-adv-x="282" 
d="M272 0h-262v464h262v-464zM10 556v11q0 78 113 78h31q118 0 118 -78v-11q0 -79 -118 -79h-32q-112 0 -112 79z" />
    <glyph glyph-name="j" unicode="j" horiz-adv-x="296" 
d="M286 464v-462q0 -78 -46.5 -108.5t-160.5 -30.5h-71l-8 137h24v464h262zM19 557v11q0 78 113 78h31q118 0 118 -78v-11q0 -79 -118 -79h-32q-112 0 -112 79z" />
    <glyph glyph-name="k" unicode="k" horiz-adv-x="561" 
d="M563 0h-266l-28 177h-10v-177h-249v630h249v-339h10l34 188h263l-41 -196q-6 -29 -33 -43v-4q29 -10 34 -41z" />
    <glyph glyph-name="l" unicode="l" horiz-adv-x="297" 
d="M10 125v505h259v-440q0 -24 26 -24l-8 -176h-101q-176 0 -176 135z" />
    <glyph glyph-name="m" unicode="m" horiz-adv-x="858" 
d="M679 491q169 0 169 -137v-354h-267v299h-20v-299h-268v299h-20v-299h-263v479h242l4 -27q78 39 151 39t118 -43q71 43 154 43z" />
    <glyph glyph-name="n" unicode="n" horiz-adv-x="570" 
d="M256 452q80 39 152 39t112 -38.5t40 -103.5v-349h-267v299h-20v-299h-263v479h242z" />
    <glyph glyph-name="o" unicode="o" horiz-adv-x="568" 
d="M72.5 432q68.5 59 213.5 59t211.5 -58t66.5 -190.5t-64.5 -192.5t-212.5 -60t-215.5 60t-67.5 191.5t68.5 190.5zM296 131v190h-20v-190h20z" />
    <glyph glyph-name="p" unicode="p" horiz-adv-x="570" 
d="M345 -10q-29 0 -72 10v-137h-263v616h232l4 -20q50 32 121 32q115 0 157 -56t42 -189t-46.5 -194.5t-174.5 -61.5zM283 131v190h-20v-190h20z" />
    <glyph glyph-name="q" unicode="q" horiz-adv-x="572" 
d="M55.5 53.5q-51.5 63.5 -51.5 186t52 187t151 64.5q65 0 119 -30l3 18h233v-616h-263v136q-32 -9 -67 -9q-125 0 -176.5 63.5zM309 131v190h-20v-190h20z" />
    <glyph glyph-name="r" unicode="r" horiz-adv-x="349" 
d="M273 228v-228h-263v479h220l2 -25h4q30 29 111 29l-11 -206h-12q-28 0 -39.5 -10t-11.5 -39z" />
    <glyph glyph-name="s" unicode="s" horiz-adv-x="464" 
d="M61.5 447.5q59.5 43.5 173.5 43.5t218 -19l-14 -160l-191 21v-14q57 -5 93.5 -13.5t65.5 -26.5q55 -34 55 -125q0 -164 -219 -164q-116 0 -233 19l7 156l205 -24v14q-56 8 -91.5 17t-67.5 26q-61 34 -61 120t59.5 129.5z" />
    <glyph glyph-name="t" unicode="t" horiz-adv-x="345" 
d="M201 -10q-91 0 -132.5 33.5t-41.5 108.5v193h-27v154h38l12 92h239v-92h54l-7 -154h-47v-135q0 -22 21 -22h24l-6 -168q-74 -10 -127 -10z" />
    <glyph glyph-name="u" unicode="u" horiz-adv-x="570" 
d="M153 -10q-143 0 -143 137v352h266v-309h20v309h264v-479h-253v32h-4q-73 -42 -150 -42z" />
    <glyph glyph-name="v" unicode="v" horiz-adv-x="554" 
d="M564 479l-96 -479h-381l-97 479h275l15 -216h8l17 216h259z" />
    <glyph glyph-name="w" unicode="w" horiz-adv-x="728" 
d="M728 479l-57 -479h-280l-21 151h-6l-16 -151h-292l-56 479h230l11 -186h8l14 186h209l14 -186h9l10 186h223z" />
    <glyph glyph-name="x" unicode="x" horiz-adv-x="575" 
d="M575 0h-269l-16 115h-8l-16 -115h-266l85 234l-84 245h271l15 -135h8l15 135h262l-82 -244z" />
    <glyph glyph-name="y" unicode="y" horiz-adv-x="552" 
d="M560 479l-115 -486q-17 -69 -67 -99.5t-156 -30.5h-179l-18 169h62q13 0 13 14q0 7 -7 28l-101 405h273l17 -227h8l20 227h250z" />
    <glyph glyph-name="z" unicode="z" horiz-adv-x="474" 
d="M472 0h-450l-8 130l121 171h-123l-10 178h458l8 -123l-115 -180h119v-176z" />
    <glyph glyph-name="braceleft" unicode="{" horiz-adv-x="397" 
d="M387 -137h-148q-92 0 -132 31t-40 103v158q0 18 -12 22t-55 4v142q45 0 56 3.5t11 22.5v139q0 78 38.5 110t133.5 32h148v-147h-76v-155q0 -31 -10.5 -46t-36.5 -28v-6q25 -12 36 -28t11 -45v-170h76v-142z" />
    <glyph glyph-name="bar" unicode="|" horiz-adv-x="278" 
d="M258 -137h-238v758h238v-758z" />
    <glyph glyph-name="braceright" unicode="}" horiz-adv-x="397" 
d="M158 -137h-148v142h76v170q0 29 11.5 45t36.5 28v6q-27 13 -37.5 27.5t-10.5 46.5v155h-76v147h148q95 0 133.5 -32t38.5 -110v-139q0 -19 11 -22.5t56 -3.5v-142q-59 0 -65 -11q-2 -5 -2 -15v-158q0 -72 -40 -103t-132 -31z" />
    <glyph glyph-name="asciitilde" unicode="~" 
d="M461 656v-14q0 -72 -25.5 -104.5t-101.5 -32.5q-34 0 -110 24v-24h-181v15q0 70 26.5 103t96.5 33q33 0 115 -24v24h180z" />
    <glyph glyph-name="nbspace" unicode="&#xa0;" horiz-adv-x="175" 
 />
    <glyph glyph-name="exclamdown" unicode="&#xa1;" horiz-adv-x="272" 
d="M238 302l14 -439h-242l17 439h211zM242 419v-31q0 -37 -21.5 -52.5t-71.5 -15.5h-31q-55 0 -76.5 15.5t-21.5 52.5v31q0 38 22 53.5t78 15.5h32q49 0 69.5 -15t20.5 -54z" />
    <glyph glyph-name="cent" unicode="&#xa2;" horiz-adv-x="388" 
d="M300 271.5q-8 -9.5 -8 -38t7.5 -37t21 -8.5t51.5 4l11 -191q-45 -7 -61 -9v-56h-223v90q-95 56 -95 207t95 215v89h222v-48q24 -1 67 -8l-17 -204q-38 4 -50.5 4t-20.5 -9.5z" />
    <glyph glyph-name="sterling" unicode="&#xa3;" horiz-adv-x="673" 
d="M321 630q77 0 249 -20l-19 -207l-131 15l-3 -6l15 -28h118l-9 -115h-91v-109h17v92h204v-73q0 -104 -41 -157t-153 -53q-62 0 -166 32h-4q-66 -25 -126 -25q-161 0 -161 143q0 67 36 101.5t98 34.5q11 0 43 -2v16h-110v115h75q-31 67 -31 101q0 145 190 145zM175 102h30
v20h-30v-20z" />
    <glyph glyph-name="currency" unicode="&#xa4;" horiz-adv-x="779" 
d="M84 76l-30 50l124 72q-17 54 -17 103t12 94l-125 73l31 53l120 -69q69 90 194.5 90t193.5 -88l114 67l30 -53l-117 -68q13 -45 13 -95t-20 -108l120 -71l-32 -51l-120 71q-69 -74 -185 -74t-184 76q-43 -24 -122 -72zM391 122q174 0 174 184q0 88 -43.5 136t-130.5 48
q-172 0 -172 -185q0 -91 45 -137t127 -46z" />
    <glyph glyph-name="yen" unicode="&#xa5;" horiz-adv-x="591" 
d="M601 621l-108 -296h49v-112h-89l-6 -15h95v-110h-108v-88h-282v88h-111v110h98l-5 15h-93v112h53l-104 296h278l25 -204h12l25 204h271z" />
    <glyph glyph-name="brokenbar" unicode="&#xa6;" horiz-adv-x="278" 
d="M258 -137h-238v354h238v-354zM258 621v-336h-238v336h238z" />
    <glyph glyph-name="section" unicode="&#xa7;" horiz-adv-x="494" 
d="M273 461l-2 -10q119 -26 170 -71t51 -128.5t-44 -151.5q12 -32 12 -66q0 -86 -59.5 -133t-170.5 -47t-217 17l16 166q180 -19 205 -19l3 15q-128 34 -181.5 86.5t-53.5 150.5q0 74 47 134q-10 29 -10 60q0 91 63.5 128.5t176.5 37.5q79 0 195 -17l-32 -166
q-148 14 -169 14zM314 236l-115 54l-11 -25l115 -53z" />
    <glyph glyph-name="dieresis" unicode="&#xa8;" 
d="M63 520q-22 14 -22 52.5t22.5 53t78.5 14.5t77.5 -14.5t21.5 -53t-21 -52.5t-78 -14t-79 14zM285 520q-22 14 -22 52.5t22.5 53t78.5 14.5t77.5 -14.5t21.5 -53t-21 -52.5t-78 -14t-79 14z" />
    <glyph glyph-name="copyright" unicode="&#xa9;" horiz-adv-x="1039" 
d="M330 695q80 12 212 12t223 -19t153 -72t86.5 -142.5t24.5 -211t-10.5 -193.5t-36 -124.5t-60.5 -85t-92.5 -52t-124 -26.5t-166 -7t-171 6.5t-135.5 25t-102.5 50.5t-67.5 84q-53 96 -53 308t72 316.5t248 130.5zM789 108v246q0 91 -43 124.5t-142 33.5h-183
q-89 0 -130 -34.5t-41 -126.5v-238q0 -89 43 -122.5t138 -33.5h188q95 0 132.5 32t37.5 119zM556 172.5q9 -11.5 42.5 -11.5t96.5 7l8 -175q-147 -11 -187 -11q-125 0 -178 58.5t-53 195.5t55 191.5t189 54.5q53 0 174 -9l-11 -186q-73 5 -100.5 5t-36 -11t-8.5 -54t9 -54.5
z" />
    <glyph glyph-name="ordfeminine" unicode="&#xaa;" horiz-adv-x="416" 
d="M399 537l-3 -120q0 -17 17 -17l-9 -109q-31 -3 -81 -3t-78 22h-3q-40 -22 -92 -22q-118 0 -118 102q0 62 44.5 84.5t141.5 26.5v14l-159 -13l-14 123q112 14 195.5 14t121 -23t37.5 -79zM211 432v-56h14v56h-14z" />
    <glyph glyph-name="guillemotleft" unicode="&#xab;" horiz-adv-x="603" 
d="M257 210v39l127 185h217l-134 -201l134 -200h-227zM0 210v39l127 185h217l-134 -201l134 -200h-227z" />
    <glyph glyph-name="logicalnot" unicode="&#xac;" horiz-adv-x="513" 
d="M273 86v100h-258v194h473v-294h-215z" />
    <glyph glyph-name="registered" unicode="&#xae;" horiz-adv-x="1079" 
d="M1044 473.5q25 -88.5 25 -210.5t-11.5 -194t-39 -124.5t-66 -85t-100.5 -52t-134 -26.5t-175 -7t-174.5 6.5t-135.5 25t-102.5 50.5t-67.5 84q-53 96 -53 308t72 316.5t248 130.5q80 12 219.5 12t238.5 -19t165 -72.5t91 -142zM739 441q43 -38 43 -123.5t-45 -127.5
l51 -194q41 36 41 112v246q0 84 -50.5 121t-149.5 37h-208q-91 0 -131 -36t-40 -121v-247q0 -80 43 -115.5t138 -35.5h213q93 0 136 33h-205l-28 150h-15v-150h-222v489h291q95 0 138 -38zM554 258v82h-25v-82h25z" />
    <glyph glyph-name="macron" unicode="&#xaf;" 
d="M430 497h-359v124h359v-124z" />
    <glyph glyph-name="degree" unicode="&#xb0;" horiz-adv-x="339" 
d="M295.5 593.5q38.5 -31.5 38.5 -98t-38.5 -97.5t-125.5 -31t-126 31t-39 97t39 98t126 32t125.5 -31.5zM159 511v-34h20v34h-20z" />
    <glyph glyph-name="plusminus" unicode="&#xb1;" horiz-adv-x="449" 
d="M127 193v75h-112v190h112v110h194v-110h113v-190h-113v-75h-194zM430 0h-415v180h415v-180z" />
    <glyph glyph-name="twosuperior" unicode="&#xb2;" horiz-adv-x="364" 
d="M183 630q177 0 177 -133q0 -53 -19.5 -90t-62.5 -78v-4h81v-136h-333l-4 107q100 90 100 146q0 21 -21 21q-11 0 -77 -11l-14 157q81 21 173 21z" />
    <glyph glyph-name="threesuperior" unicode="&#xb3;" horiz-adv-x="377" 
d="M33 333q99 -11 109 -11q15 0 15 13.5t-17 13.5h-95v102h95q14 0 14 13t-17 13t-114 -15l-13 146q88 22 178 22q178 0 178 -122q0 -34 -11 -55t-38 -37v-3q56 -27 56 -98t-43.5 -102t-133 -31t-176.5 17z" />
    <glyph glyph-name="acute" unicode="&#xb4;" 
d="M477 641l-119 -130h-179l64 130h234z" />
    <glyph glyph-name="mu" unicode="&#xb5;" horiz-adv-x="586" 
d="M570 -5q-68 -5 -108 -5t-64.5 6t-47.5 24h-6q-28 -30 -78 -30v-127h-256v616h266v-309h20v309h264v-306q0 -23 24 -23z" />
    <glyph glyph-name="mu" unicode="&#x3bc;" horiz-adv-x="586" 
d="M570 -5q-68 -5 -108 -5t-64.5 6t-47.5 24h-6q-28 -30 -78 -30v-127h-256v616h266v-309h20v309h264v-306q0 -23 24 -23z" />
    <glyph glyph-name="paragraph" unicode="&#xb6;" horiz-adv-x="675" 
d="M425 474v-611h-195v290q-121 0 -172.5 54.5t-51.5 183t53.5 183t176.5 54.5h419v-765h-194v611h-36z" />
    <glyph glyph-name="periodcentered" unicode="&#xb7;" horiz-adv-x="307" 
d="M20 288v31q0 37 28.5 53.5t87.5 16.5h28q64 0 93.5 -16.5t29.5 -53.5v-31q0 -38 -30 -54t-95 -16h-30q-58 0 -85 15t-27 55z" />
    <glyph glyph-name="cedilla" unicode="&#xb8;" 
d="M368 -79q0 -42 -33 -66t-100.5 -24t-127.5 36l47 82q39 -27 84 -40l4 8l-57 25q-19 10 -19 27t20 35h118l-13 -17v-4q77 0 77 -62z" />
    <glyph glyph-name="onesuperior" unicode="&#xb9;" horiz-adv-x="257" 
d="M247 186h-197v278h-40v114l64 43h173v-435z" />
    <glyph glyph-name="ordmasculine" unicode="&#xba;" horiz-adv-x="424" 
d="M79 597.5q48 41.5 149.5 41.5t148 -40.5t46.5 -133t-45.5 -135t-149 -42.5t-150.5 42t-47 134t48 133.5zM235 387v133h-14v-133h14z" />
    <glyph glyph-name="guillemotright" unicode="&#xbb;" horiz-adv-x="603" 
d="M346 256v-39l-127 -185h-217l134 201l-134 200h227zM603 256v-39l-127 -185h-217l134 201l-134 200h227z" />
    <glyph glyph-name="onequarter" unicode="&#xbc;" horiz-adv-x="872" 
d="M544 621l-130 -621h-202l129 621h203zM247 186h-197v278h-40v114l64 43h173v-435zM862 68h-30v-68h-197v68h-161l-10 97l100 270h268v-251h36zM645 181v59h-25v-59h25z" />
    <glyph glyph-name="onehalf" unicode="&#xbd;" horiz-adv-x="864" 
d="M544 621l-130 -621h-202l129 621h203zM247 186h-197v278h-40v114l64 43h173v-435zM677 441q177 0 177 -133q0 -53 -19.5 -90t-62.5 -78v-4h81v-136h-333l-4 107q100 90 100 146q0 21 -21 21q-11 0 -77 -11l-14 157q81 21 173 21z" />
    <glyph glyph-name="threequarters" unicode="&#xbe;" horiz-adv-x="972" 
d="M651 621l-130 -621h-202l129 621h203zM33 333q99 -11 109 -11q15 0 15 13.5t-17 13.5h-95v102h95q14 0 14 13t-17 13t-114 -15l-13 146q88 22 178 22q178 0 178 -122q0 -34 -11 -55t-38 -37v-3q56 -27 56 -98t-43.5 -102t-133 -31t-176.5 17zM962 68h-30v-68h-197v68
h-161l-10 97l100 270h268v-251h36zM745 181v59h-25v-59h25z" />
    <glyph glyph-name="questiondown" unicode="&#xbf;" horiz-adv-x="392" 
d="M0 40q0 85 31 130.5t108 73.5v59h206v-103q0 -37 -13.5 -52.5t-44 -28t-38 -21t-7.5 -23.5q0 -28 30 -28q21 0 110 11v-192q-88 -13 -158 -13q-224 0 -224 187zM353 419v-31q0 -37 -21.5 -52.5t-71.5 -15.5h-31q-55 0 -76.5 15.5t-21.5 52.5v31q0 38 22 53.5t78 15.5h32
q49 0 69.5 -15t20.5 -54z" />
    <glyph glyph-name="Agrave" unicode="&#xc0;" horiz-adv-x="665" 
d="M673 0h-290l-16 95h-78l-17 -95h-280l121 621h439zM345 228v124h-32v-124h32zM262 645l-113 124h222l61 -124h-170z" />
    <glyph glyph-name="Aacute" unicode="&#xc1;" horiz-adv-x="665" 
d="M673 0h-290l-16 95h-78l-17 -95h-280l121 621h439zM345 228v124h-32v-124h32zM508 769l-113 -124h-170l61 124h222z" />
    <glyph glyph-name="Acircumflex" unicode="&#xc2;" horiz-adv-x="665" 
d="M673 0h-290l-16 95h-78l-17 -95h-280l121 621h439zM345 228v124h-32v-124h32zM449 763l65 -127h-165l-16 34h-3l-16 -34h-169l65 127h239z" />
    <glyph glyph-name="Atilde" unicode="&#xc3;" horiz-adv-x="665" 
d="M673 0h-290l-16 95h-78l-17 -95h-280l121 621h439zM345 228v124h-32v-124h32zM529 783v-13q0 -69 -24 -99.5t-97 -30.5q-35 0 -104 23v-23h-172v14q0 66 25.5 97.5t91.5 31.5q34 0 109 -23v23h171z" />
    <glyph glyph-name="Adieresis" unicode="&#xc4;" horiz-adv-x="665" 
d="M673 0h-290l-16 95h-78l-17 -95h-280l121 621h439zM345 228v124h-32v-124h32zM149 654q-21 13 -21 49.5t21.5 50.5t74.5 14t73.5 -13.5t20.5 -50.5t-20 -50t-74 -13t-75 13zM359.5 654q-20.5 13 -20.5 49.5t21 50.5t74.5 14t74 -13.5t20.5 -50.5t-20 -50t-74.5 -13
t-75 13z" />
    <glyph glyph-name="Aring" unicode="&#xc5;" horiz-adv-x="665" 
d="M232 716q30 17 100.5 17t100 -16t29.5 -62q0 -22 -4 -34h94l121 -621h-290l-16 95h-78l-17 -95h-280l121 621h93q-4 11 -4 29q0 49 30 66zM345 228v124h-32v-124h32zM342 621v55h-20v-55h20z" />
    <glyph glyph-name="AE" unicode="&#xc6;" horiz-adv-x="867" 
d="M848 0h-450v95h-103l-37 -95h-278l260 621h627l-15 -204h-172v-36h168l-10 -166h-158v-36h183zM398 228v169h-4l-58 -169h62z" />
    <glyph glyph-name="Ccedilla" unicode="&#xc7;" horiz-adv-x="468" 
d="M383 -79q0 -42 -33 -66t-100.5 -24t-127.5 36l47 82q39 -27 84 -40l4 8l-57 25q-19 10 -19 27t20 35q-99 25 -147 100.5t-48 210.5q0 171 81 243t254 72q44 0 119 -10l-17 -239q-40 5 -61.5 5t-32.5 -14t-11 -68.5t11.5 -69.5t32.5 -15t63 8l15 -227q-72 -10 -135 -10
h-17l-2 -3v-4q77 0 77 -62z" />
    <glyph glyph-name="Egrave" unicode="&#xc8;" horiz-adv-x="489" 
d="M470 0h-450v621h469l-15 -204h-172v-36h168l-10 -166h-158v-36h183zM202 645l-113 124h222l61 -124h-170z" />
    <glyph glyph-name="Eacute" unicode="&#xc9;" horiz-adv-x="489" 
d="M470 0h-450v621h469l-15 -204h-172v-36h168l-10 -166h-158v-36h183zM458 769l-113 -124h-170l61 124h222z" />
    <glyph glyph-name="Ecircumflex" unicode="&#xca;" horiz-adv-x="489" 
d="M470 0h-450v621h469l-15 -204h-172v-36h168l-10 -166h-158v-36h183zM372 763l65 -127h-165l-16 34h-3l-16 -34h-169l65 127h239z" />
    <glyph glyph-name="Edieresis" unicode="&#xcb;" horiz-adv-x="489" 
d="M470 0h-450v621h469l-15 -204h-172v-36h168l-10 -166h-158v-36h183zM80 654q-21 13 -21 49.5t21.5 50.5t74.5 14t73.5 -13.5t20.5 -50.5t-20 -50t-74 -13t-75 13zM290.5 654q-20.5 13 -20.5 49.5t21 50.5t74.5 14t74 -13.5t20.5 -50.5t-20 -50t-74.5 -13t-75 13z" />
    <glyph glyph-name="Igrave" unicode="&#xcc;" horiz-adv-x="322" 
d="M302 0h-282v621h282v-621zM106 655l-113 124h222l61 -124h-170z" />
    <glyph glyph-name="Iacute" unicode="&#xcd;" horiz-adv-x="322" 
d="M302 0h-282v621h282v-621zM326 779l-113 -124h-170l61 124h222z" />
    <glyph glyph-name="Icircumflex" unicode="&#xce;" horiz-adv-x="322" 
d="M302 0h-282v621h282v-621zM279 773l65 -127h-165l-16 34h-3l-16 -34h-169l65 127h239z" />
    <glyph glyph-name="Idieresis" unicode="&#xcf;" horiz-adv-x="322" 
d="M301 0h-282v621h282v-621zM-18 664q-21 13 -21 49.5t21.5 50.5t74.5 14t73.5 -13.5t20.5 -50.5t-20 -50t-74 -13t-75 13zM192.5 664q-20.5 13 -20.5 49.5t21 50.5t74.5 14t74 -13.5t20.5 -50.5t-20 -50t-74.5 -13t-75 13z" />
    <glyph glyph-name="Eth" unicode="&#xd0;" horiz-adv-x="637" 
d="M631 324q0 -324 -342 -324h-269v195h-35v204h35v222h275q183 0 259.5 -76.5t76.5 -220.5zM328 157v278h-36v-278h36z" />
    <glyph glyph-name="Ntilde" unicode="&#xd1;" horiz-adv-x="652" 
d="M632 0h-256l-113 199v-199h-243v621h263l104 -201v201h245v-621zM519 783v-13q0 -69 -24 -99.5t-97 -30.5q-35 0 -104 23v-23h-172v14q0 66 25.5 97.5t91.5 31.5q34 0 109 -23v23h171z" />
    <glyph glyph-name="Ograve" unicode="&#xd2;" horiz-adv-x="670" 
d="M82.5 555.5q76.5 74.5 253.5 74.5t252.5 -73.5t75.5 -240t-78 -246.5t-252.5 -80t-251 79t-76.5 245.5t76.5 241zM254 655l-113 124h222l61 -124h-170zM357 157v278h-32v-278h32z" />
    <glyph glyph-name="Oacute" unicode="&#xd3;" horiz-adv-x="670" 
d="M82.5 555.5q76.5 74.5 253.5 74.5t252.5 -73.5t75.5 -240t-78 -246.5t-252.5 -80t-251 79t-76.5 245.5t76.5 241zM525 779l-113 -124h-170l61 124h222zM357 157v278h-32v-278h32z" />
    <glyph glyph-name="Ocircumflex" unicode="&#xd4;" horiz-adv-x="670" 
d="M82.5 555.5q76.5 74.5 253.5 74.5t252.5 -73.5t75.5 -240t-78 -246.5t-252.5 -80t-251 79t-76.5 245.5t76.5 241zM449 773l65 -127h-165l-16 34h-3l-16 -34h-169l65 127h239zM357 157v278h-32v-278h32z" />
    <glyph glyph-name="Otilde" unicode="&#xd5;" horiz-adv-x="670" 
d="M82.5 555.5q76.5 74.5 253.5 74.5t252.5 -73.5t75.5 -240t-78 -246.5t-252.5 -80t-251 79t-76.5 245.5t76.5 241zM532 783v-13q0 -69 -24 -99.5t-97 -30.5q-35 0 -104 23v-23h-172v14q0 66 25.5 97.5t91.5 31.5q34 0 109 -23v23h171zM357 157v278h-32v-278h32z" />
    <glyph glyph-name="Odieresis" unicode="&#xd6;" horiz-adv-x="670" 
d="M82.5 555.5q76.5 74.5 253.5 74.5t252.5 -73.5t75.5 -240t-78 -246.5t-252.5 -80t-251 79t-76.5 245.5t76.5 241zM360.5 654q-20.5 13 -20.5 49.5t21 50.5t74.5 14t74 -13.5t20.5 -50.5t-20 -50t-74.5 -13t-75 13zM150 654q-21 13 -21 49.5t21.5 50.5t74.5 14t73.5 -13.5
t20.5 -50.5t-20 -50t-74 -13t-75 13zM357 157v278h-32v-278h32z" />
    <glyph glyph-name="multiply" unicode="&#xd7;" horiz-adv-x="456" 
d="M15 206l76 78l-83 83l136 137l84 -85l85 85l135 -137l-82 -83l76 -78l-135 -136l-79 79l-78 -78z" />
    <glyph glyph-name="Oslash" unicode="&#xd8;" horiz-adv-x="670" 
d="M337 631q24 0 36 -1l20 43h262l-59 -124q68 -74 68 -236.5t-78 -242.5t-254 -80h-8l-18 -38h-265l52 107q-87 76 -87 249t77 248t254 75zM359 157v278h-36v-278h36z" />
    <glyph glyph-name="Ugrave" unicode="&#xd9;" horiz-adv-x="644" 
d="M304 621v-444h32v444h288v-413q0 -218 -305 -218q-145 0 -222 54t-77 162v415h284zM234 645l-113 124h222l61 -124h-170z" />
    <glyph glyph-name="Uacute" unicode="&#xda;" horiz-adv-x="644" 
d="M304 621v-444h32v444h288v-413q0 -218 -305 -218q-145 0 -222 54t-77 162v415h284zM519 769l-113 -124h-170l61 124h222z" />
    <glyph glyph-name="Ucircumflex" unicode="&#xdb;" horiz-adv-x="644" 
d="M304 621v-444h32v444h288v-413q0 -218 -305 -218q-145 0 -222 54t-77 162v415h284zM437 763l65 -127h-165l-16 34h-3l-16 -34h-169l65 127h239z" />
    <glyph glyph-name="Udieresis" unicode="&#xdc;" horiz-adv-x="644" 
d="M304 621v-444h32v444h288v-413q0 -218 -305 -218q-145 0 -222 54t-77 162v415h284zM139 654q-21 13 -21 49.5t21.5 50.5t74.5 14t73.5 -13.5t20.5 -50.5t-20 -50t-74 -13t-75 13zM349.5 654q-20.5 13 -20.5 49.5t21 50.5t74.5 14t74 -13.5t20.5 -50.5t-20 -50t-74.5 -13
t-75 13z" />
    <glyph glyph-name="Yacute" unicode="&#xdd;" horiz-adv-x="546" 
d="M605 621l-167 -460v-161h-282v162l-162 459h278l25 -204h12l25 204h271zM495 769l-113 -124h-170l61 124h222z" />
    <glyph glyph-name="Thorn" unicode="&#xde;" horiz-adv-x="594" 
d="M594 307q0 -116 -64.5 -170t-198.5 -54h-29v-83h-282v621h282v-90h17q143 0 209 -54t66 -170zM330 230v124h-28v-124h28z" />
    <glyph glyph-name="germandbls" unicode="&#xdf;" horiz-adv-x="613" 
d="M316 364v104h-36v-468h-253v327h-33v138h33v6q0 92 70 135.5t212 43.5q288 0 288 -192q0 -50 -11.5 -78t-48.5 -50v-4q40 -17 56 -50t16 -93q0 -94 -50.5 -141.5t-166.5 -47.5q-27 0 -97 6v127h21v123h-21v114h21z" />
    <glyph glyph-name="agrave" unicode="&#xe0;" horiz-adv-x="547" 
d="M525 346l-5 -172q0 -24 25 -24l-14 -156q-60 -4 -96 -4q-90 0 -130 31h-5q-60 -31 -132 -31q-168 0 -168 146q0 91 70 124q37 17 82 24t114 10v21l-228 -19l-19 176q149 19 273.5 19t178.5 -33t54 -112zM256 196v-80h20v80h-20zM210 511l-119 130h234l64 -130h-179z" />
    <glyph glyph-name="aacute" unicode="&#xe1;" horiz-adv-x="547" 
d="M525 346l-5 -172q0 -24 25 -24l-14 -156q-60 -4 -96 -4q-90 0 -130 31h-5q-60 -31 -132 -31q-168 0 -168 146q0 91 70 124q37 17 82 24t114 10v21l-228 -19l-19 176q149 19 273.5 19t178.5 -33t54 -112zM256 196v-80h20v80h-20zM483 641l-119 -130h-179l64 130h234z" />
    <glyph glyph-name="acircumflex" unicode="&#xe2;" horiz-adv-x="547" 
d="M525 346l-5 -172q0 -24 25 -24l-14 -156q-60 -4 -96 -4q-90 0 -130 31h-5q-60 -31 -132 -31q-168 0 -168 146q0 91 70 124q37 17 82 24t114 10v21l-228 -19l-19 176q149 19 273.5 19t178.5 -33t54 -112zM256 196v-80h20v80h-20zM398 635l68 -134h-174l-16 36h-4l-16 -36
h-178l68 134h252z" />
    <glyph glyph-name="atilde" unicode="&#xe3;" horiz-adv-x="547" 
d="M525 346l-5 -172q0 -24 25 -24l-14 -156q-60 -4 -96 -4q-90 0 -130 31h-5q-60 -31 -132 -31q-168 0 -168 146q0 91 70 124q37 17 82 24t114 10v21l-228 -19l-19 176q149 19 273.5 19t178.5 -33t54 -112zM256 196v-80h20v80h-20zM478 656v-14q0 -72 -25.5 -104.5
t-101.5 -32.5q-34 0 -110 24v-24h-181v15q0 70 26.5 103t96.5 33q33 0 115 -24v24h180z" />
    <glyph glyph-name="adieresis" unicode="&#xe4;" horiz-adv-x="547" 
d="M525 346l-5 -172q0 -24 25 -24l-14 -156q-60 -4 -96 -4q-90 0 -130 31h-5q-60 -31 -132 -31q-168 0 -168 146q0 91 70 124q37 17 82 24t114 10v21l-228 -19l-19 176q149 19 273.5 19t178.5 -33t54 -112zM256 196v-80h20v80h-20zM86 520q-22 14 -22 52.5t22.5 53
t78.5 14.5t77.5 -14.5t21.5 -53t-21 -52.5t-78 -14t-79 14zM308 520q-22 14 -22 52.5t22.5 53t78.5 14.5t77.5 -14.5t21.5 -53t-21 -52.5t-78 -14t-79 14z" />
    <glyph glyph-name="aring" unicode="&#xe5;" horiz-adv-x="547" 
d="M525 346l-5 -172q0 -24 25 -24l-14 -156q-60 -4 -96 -4q-90 0 -130 31h-5q-60 -31 -132 -31q-168 0 -168 146q0 91 70 124q37 17 82 24t114 10v21l-228 -19l-19 176q149 19 273.5 19t178.5 -33t54 -112zM174 645q30 17 100.5 17t100 -16t29.5 -64.5t-29 -64.5t-100 -16
t-101 16t-30 63.5t30 64.5zM256 196v-80h20v80h-20zM284 550v55h-20v-55h20z" />
    <glyph glyph-name="ae" unicode="&#xe6;" horiz-adv-x="808" 
d="M806 298q0 -43 -8 -118h-265v-18q43 -5 86 -5t161 6l10 -151q-138 -22 -249 -22t-186 31h-5q-83 -31 -182 -31q-168 0 -168 146q0 91 70 124q37 17 82 24t114 10v21l-228 -19l-19 176q149 19 256.5 19t156.5 -16q51 16 124 16q139 0 194.5 -49.5t55.5 -143.5zM256 196
v-80h20v80h-20zM552 254v79h-20v-79h20z" />
    <glyph glyph-name="ccedilla" unicode="&#xe7;" horiz-adv-x="388" 
d="M270 491q63 0 118 -10l-17 -200q-42 4 -53 4q-26 0 -26 -49q0 -34 7.5 -43t21 -9t51.5 4l11 -187q-65 -11 -113 -11l-2 -3v-4q77 0 77 -62q0 -42 -33 -66t-100.5 -24t-127.5 36l47 82q39 -27 84 -40l4 8l-57 25q-19 10 -19 26.5t17 33.5q-156 40 -156 229q0 260 266 260z
" />
    <glyph glyph-name="egrave" unicode="&#xe8;" horiz-adv-x="543" 
d="M541 298q0 -43 -8 -118h-265v-18q43 -5 86 -5t161 6l10 -151q-137 -22 -245 -22q-278 0 -278 247q0 254 289 254q139 0 194.5 -49.5t55.5 -143.5zM216 511l-119 130h234l64 -130h-179zM287 254v79h-20v-79h20z" />
    <glyph glyph-name="eacute" unicode="&#xe9;" horiz-adv-x="543" 
d="M541 298q0 -43 -8 -118h-265v-18q43 -5 86 -5t161 6l10 -151q-137 -22 -245 -22q-278 0 -278 247q0 254 289 254q139 0 194.5 -49.5t55.5 -143.5zM487 641l-119 -130h-179l64 130h234zM287 254v79h-20v-79h20z" />
    <glyph glyph-name="ecircumflex" unicode="&#xea;" horiz-adv-x="543" 
d="M541 298q0 -43 -8 -118h-265v-18q43 -5 86 -5t161 6l10 -151q-137 -22 -245 -22q-278 0 -278 247q0 254 289 254q139 0 194.5 -49.5t55.5 -143.5zM402 635l68 -134h-174l-16 36h-4l-16 -36h-178l68 134h252zM287 254v79h-20v-79h20z" />
    <glyph glyph-name="edieresis" unicode="&#xeb;" horiz-adv-x="543" 
d="M541 298q0 -43 -8 -118h-265v-18q43 -5 86 -5t161 6l10 -151q-137 -22 -245 -22q-278 0 -278 247q0 254 289 254q139 0 194.5 -49.5t55.5 -143.5zM312 520q-22 14 -22 52.5t22.5 53t78.5 14.5t77.5 -14.5t21.5 -53t-21 -52.5t-78 -14t-79 14zM90 520q-22 14 -22 52.5
t22.5 53t78.5 14.5t77.5 -14.5t21.5 -53t-21 -52.5t-78 -14t-79 14zM287 254v79h-20v-79h20z" />
    <glyph glyph-name="igrave" unicode="&#xec;" horiz-adv-x="282" 
d="M272 0h-262v464h262v-464zM81 511l-119 130h234l64 -130h-179z" />
    <glyph glyph-name="iacute" unicode="&#xed;" horiz-adv-x="282" 
d="M272 0h-262v464h262v-464zM331 641l-119 -130h-179l64 130h234z" />
    <glyph glyph-name="icircumflex" unicode="&#xee;" horiz-adv-x="282" 
d="M275 0h-262v464h262v-464zM272 635l68 -134h-174l-16 36h-4l-16 -36h-178l68 134h252z" />
    <glyph glyph-name="idieresis" unicode="&#xef;" horiz-adv-x="282" 
d="M275 0h-262v464h262v-464zM-46 520q-22 14 -22 52.5t22.5 53t78.5 14.5t77.5 -14.5t21.5 -53t-21 -52.5t-78 -14t-79 14zM176 520q-22 14 -22 52.5t22.5 53t78.5 14.5t77.5 -14.5t21.5 -53t-21 -52.5t-78 -14t-79 14z" />
    <glyph glyph-name="eth" unicode="&#xf0;" horiz-adv-x="570" 
d="M233 401q35 0 67 -4l1 3q-19 22 -47 35l-132 -38v93l21 6v5h-87v153q171 0 284 -33l135 52v-132l-22 -11q113 -104 113 -265q0 -133 -66 -204t-208 -71q-288 0 -288 218q0 193 229 193zM295 131v130h-20v-130h20z" />
    <glyph glyph-name="ntilde" unicode="&#xf1;" horiz-adv-x="570" 
d="M256 452q80 39 152 39t112 -38.5t40 -103.5v-349h-267v299h-20v-299h-263v479h242zM488 656v-14q0 -72 -25.5 -104.5t-101.5 -32.5q-34 0 -110 24v-24h-181v15q0 70 26.5 103t96.5 33q33 0 115 -24v24h180z" />
    <glyph glyph-name="ograve" unicode="&#xf2;" horiz-adv-x="568" 
d="M72.5 432q68.5 59 213.5 59t211.5 -58t66.5 -190.5t-64.5 -192.5t-212.5 -60t-215.5 60t-67.5 191.5t68.5 190.5zM213 511l-119 130h234l64 -130h-179zM296 131v190h-20v-190h20z" />
    <glyph glyph-name="oacute" unicode="&#xf3;" horiz-adv-x="568" 
d="M72.5 432q68.5 59 213.5 59t211.5 -58t66.5 -190.5t-64.5 -192.5t-212.5 -60t-215.5 60t-67.5 191.5t68.5 190.5zM479 641l-119 -130h-179l64 130h234zM296 131v190h-20v-190h20z" />
    <glyph glyph-name="ocircumflex" unicode="&#xf4;" horiz-adv-x="568" 
d="M72.5 432q68.5 59 213.5 59t211.5 -58t66.5 -190.5t-64.5 -192.5t-212.5 -60t-215.5 60t-67.5 191.5t68.5 190.5zM411 635l68 -134h-174l-16 36h-4l-16 -36h-178l68 134h252zM296 131v190h-20v-190h20z" />
    <glyph glyph-name="otilde" unicode="&#xf5;" horiz-adv-x="568" 
d="M72.5 432q68.5 59 213.5 59t211.5 -58t66.5 -190.5t-64.5 -192.5t-212.5 -60t-215.5 60t-67.5 191.5t68.5 190.5zM489 656v-14q0 -72 -25.5 -104.5t-101.5 -32.5q-34 0 -110 24v-24h-181v15q0 70 26.5 103t96.5 33q33 0 115 -24v24h180zM296 131v190h-20v-190h20z" />
    <glyph glyph-name="odieresis" unicode="&#xf6;" horiz-adv-x="568" 
d="M72.5 432q68.5 59 213.5 59t211.5 -58t66.5 -190.5t-64.5 -192.5t-212.5 -60t-215.5 60t-67.5 191.5t68.5 190.5zM318 520q-22 14 -22 52.5t22.5 53t78.5 14.5t77.5 -14.5t21.5 -53t-21 -52.5t-78 -14t-79 14zM96 520q-22 14 -22 52.5t22.5 53t78.5 14.5t77.5 -14.5
t21.5 -53t-21 -52.5t-78 -14t-79 14zM296 131v190h-20v-190h20z" />
    <glyph glyph-name="divide" unicode="&#xf7;" horiz-adv-x="445" 
d="M117 69v31q0 37 21.5 52.5t71.5 15.5h31q55 0 76.5 -15.5t21.5 -52.5v-31q0 -38 -22 -53.5t-78 -15.5h-32q-49 0 -69.5 15t-20.5 54zM117 468v31q0 37 21.5 52.5t71.5 15.5h31q55 0 76.5 -15.5t21.5 -52.5v-31q0 -38 -22 -53.5t-78 -15.5h-32q-49 0 -69.5 15t-20.5 54z
M430 186h-415v194h415v-194z" />
    <glyph glyph-name="oslash" unicode="&#xf8;" horiz-adv-x="568" 
d="M288 491h14l21 41h219l-48 -96q70 -58 70 -192t-64.5 -194t-211.5 -60h-10l-20 -43h-221l45 94q-78 58 -78 195t68.5 196t215.5 59zM296 131v190h-20v-190h20z" />
    <glyph glyph-name="ugrave" unicode="&#xf9;" horiz-adv-x="570" 
d="M153 -10q-143 0 -143 137v352h266v-309h20v309h264v-479h-253v32h-4q-73 -42 -150 -42zM198 511l-119 130h234l64 -130h-179z" />
    <glyph glyph-name="uacute" unicode="&#xfa;" horiz-adv-x="570" 
d="M153 -10q-143 0 -143 137v352h266v-309h20v309h264v-479h-253v32h-4q-73 -42 -150 -42zM495 641l-119 -130h-179l64 130h234z" />
    <glyph glyph-name="ucircumflex" unicode="&#xfb;" horiz-adv-x="570" 
d="M153 -10q-143 0 -143 137v352h266v-309h20v309h264v-479h-253v32h-4q-73 -42 -150 -42zM409 635l68 -134h-174l-16 36h-4l-16 -36h-178l68 134h252z" />
    <glyph glyph-name="udieresis" unicode="&#xfc;" horiz-adv-x="570" 
d="M153 -10q-143 0 -143 137v352h266v-309h20v309h264v-479h-253v32h-4q-73 -42 -150 -42zM97 520q-22 14 -22 52.5t22.5 53t78.5 14.5t77.5 -14.5t21.5 -53t-21 -52.5t-78 -14t-79 14zM319 520q-22 14 -22 52.5t22.5 53t78.5 14.5t77.5 -14.5t21.5 -53t-21 -52.5t-78 -14
t-79 14z" />
    <glyph glyph-name="yacute" unicode="&#xfd;" horiz-adv-x="602" 
d="M585 479l-115 -486q-17 -69 -67 -99.5t-156 -30.5h-179l-18 169h62q13 0 13 14q0 7 -7 28l-101 405h273l17 -227h8l20 227h250zM512 641l-119 -130h-179l64 130h234z" />
    <glyph glyph-name="thorn" unicode="&#xfe;" horiz-adv-x="570" 
d="M361 -10q-45 0 -88 10v-136h-263v776h255v-162q43 13 98 13q114 0 158.5 -59t44.5 -188t-44 -191.5t-161 -62.5zM283 131v190h-20v-190h20z" />
    <glyph glyph-name="ydieresis" unicode="&#xff;" horiz-adv-x="602" 
d="M585 479l-115 -486q-17 -69 -67 -99.5t-156 -30.5h-179l-18 169h62q13 0 13 14q0 7 -7 28l-101 405h273l17 -227h8l20 227h250zM121 520q-22 14 -22 52.5t22.5 53t78.5 14.5t77.5 -14.5t21.5 -53t-21 -52.5t-78 -14t-79 14zM343 520q-22 14 -22 52.5t22.5 53t78.5 14.5
t77.5 -14.5t21.5 -53t-21 -52.5t-78 -14t-79 14z" />
    <glyph glyph-name="hbar" unicode="&#x127;" horiz-adv-x="570" 
d="M329 501h-64v-36q55 26 135 26t120 -38.5t40 -103.5v-349h-267v299h-20v-299h-263v501h-10v110h10v19h255v-19h64v-110z" />
    <glyph glyph-name="Itilde" unicode="&#x128;" horiz-adv-x="322" 
d="M302 0h-282v621h282v-621zM358 783v-13q0 -69 -24 -99.5t-97 -30.5q-35 0 -104 23v-23h-172v14q0 66 25.5 97.5t91.5 31.5q34 0 109 -23v23h171z" />
    <glyph glyph-name="itilde" unicode="&#x129;" horiz-adv-x="282" 
d="M272 0h-262v464h262v-464zM350 656v-14q0 -72 -25.5 -104.5t-101.5 -32.5q-34 0 -110 24v-24h-181v15q0 70 26.5 103t96.5 33q33 0 115 -24v24h180z" />
    <glyph glyph-name="dotlessi" unicode="&#x131;" horiz-adv-x="282" 
d="M272 0h-262v464h262v-464z" />
    <glyph glyph-name="IJ" unicode="&#x132;" horiz-adv-x="675" 
d="M302 0h-282v621h282v-621zM655 621v-490q0 -78 -31 -109.5t-123 -31.5h-168l-11 181h51v450h282z" />
    <glyph glyph-name="ij" unicode="&#x133;" horiz-adv-x="578" 
d="M568 464v-462q0 -78 -46.5 -108.5t-160.5 -30.5h-71l-8 137h24v464h262zM272 0h-262v464h262v-464zM10 556v11q0 78 113 78h31q118 0 118 -78v-11q0 -79 -118 -79h-32q-112 0 -112 79zM304 556v11q0 78 113 78h31q118 0 118 -78v-11q0 -79 -118 -79h-32q-112 0 -112 79z
" />
    <glyph glyph-name="Jcircumflex" unicode="&#x134;" horiz-adv-x="353" 
d="M333 621v-490q0 -78 -31 -109.5t-123 -31.5h-168l-11 181h51v450h282zM297 763l65 -127h-165l-16 34h-3l-16 -34h-169l65 127h239z" />
    <glyph glyph-name="jcircumflex" unicode="&#x135;" horiz-adv-x="296" 
d="M286 464v-462q0 -78 -46.5 -108.5t-160.5 -30.5h-71l-8 137h24v464h262zM274 635l68 -134h-174l-16 36h-4l-16 -36h-178l68 134h252z" />
    <glyph glyph-name="kcommaaccent" unicode="&#x137;" horiz-adv-x="561" 
d="M563 0h-266l-28 177h-10v-177h-249v630h249v-339h10l34 188h263l-41 -196q-6 -29 -33 -43v-4q29 -10 34 -41zM185 -89v25q0 55 76 55h35q44 0 61.5 -14t17.5 -50t-12 -57t-48 -45h-97l27 38q-33 0 -46.5 10t-13.5 38z" />
    <glyph glyph-name="kgreenlandic" unicode="&#x138;" horiz-adv-x="561" 
d="M563 0h-266l-28 177h-10v-177h-249v479h251v-188h6q23 105 70 152.5t136 47.5h73l-18 -229q-41 0 -50 -29q39 -11 49 -57z" />
    <glyph glyph-name="Ldotaccent" unicode="&#x13f;" horiz-adv-x="584" 
d="M392 0h-372v621h282v-422h104zM317 288v31q0 37 28.5 53.5t87.5 16.5h28q64 0 93.5 -16.5t29.5 -53.5v-31q0 -38 -30 -54t-95 -16h-30q-58 0 -85 15t-27 55z" />
    <glyph glyph-name="ldot" unicode="&#x140;" horiz-adv-x="564" 
d="M10 125v505h259v-440q0 -24 26 -24l-8 -176h-101q-176 0 -176 135zM287 278v31q0 37 28.5 53.5t87.5 16.5h28q64 0 93.5 -16.5t29.5 -53.5v-31q0 -38 -30 -54t-95 -16h-30q-58 0 -85 15t-27 55z" />
    <glyph glyph-name="Lslash" unicode="&#x141;" horiz-adv-x="406" 
d="M402 0h-372v147l-30 -12v214l30 12v260h282v-145l35 15v-213l-35 -15v-64h104z" />
    <glyph glyph-name="lslash" unicode="&#x142;" horiz-adv-x="317" 
d="M30 125v26l-30 -12v214l30 12v275h259v-171l28 12v-213l-28 -12v-66q0 -24 26 -24l-8 -176h-101q-176 0 -176 135z" />
    <glyph glyph-name="Nacute" unicode="&#x143;" horiz-adv-x="652" 
d="M632 0h-256l-113 199v-199h-243v621h263l104 -201v201h245v-621zM508 769l-113 -124h-170l61 124h222z" />
    <glyph glyph-name="nacute" unicode="&#x144;" horiz-adv-x="570" 
d="M256 452q80 39 152 39t112 -38.5t40 -103.5v-349h-267v299h-20v-299h-263v479h242zM474 641l-119 -130h-179l64 130h234z" />
    <glyph glyph-name="OE" unicode="&#x152;" horiz-adv-x="825" 
d="M806 0h-363q-55 -10 -112 -10q-173 0 -249.5 79t-76.5 245.5t76.5 241t254.5 74.5q62 0 111 -9h378l-15 -204h-172v-36h168l-10 -166h-158v-36h183zM356 157v278h-32v-278h32z" />
    <glyph glyph-name="oe" unicode="&#x153;" horiz-adv-x="839" 
d="M835 298q0 -43 -8 -118h-265v-18q43 -5 86 -5t161 6l10 -151q-138 -22 -233 -22t-152 23q-53 -23 -146 -23q-149 0 -216.5 60t-67.5 191.5t68.5 190.5t215.5 59q93 0 149 -25q56 25 148 25q139 0 194.5 -49.5t55.5 -143.5zM296 131v190h-20v-190h20zM581 254v79h-20v-79
h20z" />
    <glyph glyph-name="Racute" unicode="&#x154;" horiz-adv-x="623" 
d="M546 572q62 -49 62 -150.5t-63 -157.5l83 -264h-272l-36 193h-18v-193h-282v621h330q134 0 196 -49zM330 340v102h-32v-102h32zM478 769l-113 -124h-170l61 124h222z" />
    <glyph glyph-name="Rcommaaccent" unicode="&#x156;" horiz-adv-x="623" 
d="M546 572q62 -49 62 -150.5t-63 -157.5l83 -264h-272l-36 193h-18v-193h-282v621h330q134 0 196 -49zM330 340v102h-32v-102h32zM236 -89v25q0 55 76 55h35q44 0 61.5 -14t17.5 -50t-12 -57t-48 -45h-97l27 38q-33 0 -46.5 10t-13.5 38z" />
    <glyph glyph-name="rcommaaccent" unicode="&#x157;" horiz-adv-x="349" 
d="M273 228v-228h-263v479h220l2 -25h4q30 29 111 29l-11 -206h-12q-28 0 -39.5 -10t-11.5 -39zM60 -89v25q0 55 76 55h35q44 0 61.5 -14t17.5 -50t-12 -57t-48 -45h-97l27 38q-33 0 -46.5 10t-13.5 38z" />
    <glyph glyph-name="Rcaron" unicode="&#x158;" horiz-adv-x="623" 
d="M546 572q62 -49 62 -150.5t-63 -157.5l83 -264h-272l-36 193h-18v-193h-282v621h330q134 0 196 -49zM330 340v102h-32v-102h32zM182 642l-65 127h165l16 -34h3l16 34h169l-65 -127h-239z" />
    <glyph glyph-name="rcaron" unicode="&#x159;" horiz-adv-x="349" 
d="M273 228v-228h-263v479h220l2 -25h4q30 29 111 29l-11 -206h-12q-28 0 -39.5 -10t-11.5 -39zM49 507l-68 134h174l16 -36h4l16 36h178l-68 -134h-252z" />
    <glyph glyph-name="Scaron" unicode="&#x160;" horiz-adv-x="529" 
d="M529 204q0 -214 -257 -214q-127 0 -253 30l8 182l230 -44v18q-67 14 -109 28.5t-78 40.5q-70 50 -70 159.5t66.5 167.5t189.5 58t257 -21l-19 -199l-223 34v-19q134 -18 196 -64.5t62 -156.5zM136 642l-65 127h165l16 -34h3l16 34h169l-65 -127h-239z" />
    <glyph glyph-name="scaron" unicode="&#x161;" horiz-adv-x="464" 
d="M61.5 447.5q59.5 43.5 173.5 43.5t218 -19l-14 -160l-191 21v-14q57 -5 93.5 -13.5t65.5 -26.5q55 -34 55 -125q0 -164 -219 -164q-116 0 -233 19l7 156l205 -24v14q-56 8 -91.5 17t-67.5 26q-61 34 -61 120t59.5 129.5zM102 507l-68 134h174l16 -36h4l16 36h178
l-68 -134h-252z" />
    <glyph glyph-name="Ydieresis" unicode="&#x178;" horiz-adv-x="546" 
d="M605 621l-167 -460v-161h-282v162l-162 459h278l25 -204h12l25 204h271zM119 654q-21 13 -21 49.5t21.5 50.5t74.5 14t73.5 -13.5t20.5 -50.5t-20 -50t-74 -13t-75 13zM329.5 654q-20.5 13 -20.5 49.5t21 50.5t74.5 14t74 -13.5t20.5 -50.5t-20 -50t-74.5 -13t-75 13z
" />
    <glyph glyph-name="Zcaron" unicode="&#x17d;" horiz-adv-x="577" 
d="M577 0l-551 1l-8 154l186 262h-191l-13 204h563l8 -154l-166 -280h172v-187zM172 642l-65 127h165l16 -34h3l16 34h169l-65 -127h-239z" />
    <glyph glyph-name="zcaron" unicode="&#x17e;" horiz-adv-x="474" 
d="M472 0h-450l-8 130l121 171h-123l-10 178h458l8 -123l-115 -180h119v-176zM112 507l-68 134h174l16 -36h4l16 36h178l-68 -134h-252z" />
    <glyph glyph-name="florin" unicode="&#x192;" horiz-adv-x="461" 
d="M109 -147q-47 0 -127 13l10 157l72 -8l32 296h-71l14 114h67l7 55q10 80 57 120t149 40q60 0 147 -12l-26 -172l-75 9l-4 -40h77l-13 -114h-76q-5 -50 -16 -150t-16 -150q-8 -80 -58 -119t-150 -39z" />
    <glyph glyph-name="circumflex" unicode="&#x2c6;" 
d="M373 635l68 -134h-174l-16 36h-4l-16 -36h-178l68 134h252z" />
    <glyph glyph-name="caron" unicode="&#x2c7;" 
d="M127 507l-68 134h174l16 -36h4l16 36h178l-68 -134h-252z" />
    <glyph glyph-name="breve" unicode="&#x2d8;" 
d="M247 592h16v47h183q-2 -84 -48.5 -124.5t-145.5 -40.5t-145 40t-46 125h186v-47z" />
    <glyph glyph-name="dotaccent" unicode="&#x2d9;" 
d="M114 556v11q0 78 113 78h31q118 0 118 -78v-11q0 -79 -118 -79h-32q-112 0 -112 79z" />
    <glyph glyph-name="ring" unicode="&#x2da;" 
d="M154 645q30 17 100.5 17t100 -16t29.5 -64.5t-29 -64.5t-100 -16t-101 16t-30 63.5t30 64.5zM264 550v55h-20v-55h20z" />
    <glyph glyph-name="ogonek" unicode="&#x2db;" 
d="M140 -93q0 31 22.5 53.5t67.5 43.5h124l-63 -81l2 -3q45 8 83 26l18 -84q-64 -30 -147 -30q-107 0 -107 75z" />
    <glyph glyph-name="tilde" unicode="&#x2dc;" 
d="M461 656v-14q0 -72 -25.5 -104.5t-101.5 -32.5q-34 0 -110 24v-24h-181v15q0 70 26.5 103t96.5 33q33 0 115 -24v24h180z" />
    <glyph glyph-name="hungarumlaut" unicode="&#x2dd;" 
d="M304 636l-130 -136h-121l80 136h171zM492 636l-141 -136h-132l97 136h176z" />
    <glyph glyph-name="dotaccentcmb" unicode="&#x307;" 
d="M114 556v11q0 78 113 78h31q118 0 118 -78v-11q0 -79 -118 -79h-32q-112 0 -112 79z" />
    <glyph glyph-name="Delta" unicode="&#x394;" horiz-adv-x="665" 
d="M-8 0l131 621h419l131 -621h-681zM325 397l-34 -186h76l-36 186h-6z" />
    <glyph glyph-name="Delta" unicode="&#x2206;" horiz-adv-x="665" 
d="M-8 0l131 621h419l131 -621h-681zM325 397l-34 -186h76l-36 186h-6z" />
    <glyph glyph-name="Omega" unicode="&#x3a9;" horiz-adv-x="682" 
d="M4 0v184h65v4q-31 46 -45 85.5t-14 94.5q0 132 85 197t246 65q327 0 327 -255q0 -61 -13 -102t-45 -85v-4h68v-184h-315v410h-36v-410h-323z" />
    <glyph glyph-name="Omega" unicode="&#x2126;" horiz-adv-x="682" 
d="M4 0v184h65v4q-31 46 -45 85.5t-14 94.5q0 132 85 197t246 65q327 0 327 -255q0 -61 -13 -102t-45 -85v-4h68v-184h-315v410h-36v-410h-323z" />
    <glyph glyph-name="pi" unicode="&#x3c0;" horiz-adv-x="610" 
d="M581 0h-267v299h-20v-299h-263v300h-27v179h602v-179h-25v-300z" />
    <glyph glyph-name="endash" unicode="&#x2013;" horiz-adv-x="383" 
d="M368 146h-353v194h353v-194z" />
    <glyph glyph-name="emdash" unicode="&#x2014;" horiz-adv-x="583" 
d="M568 146h-553v194h553v-194z" />
    <glyph glyph-name="quoteleft" unicode="&#x2018;" horiz-adv-x="252" 
d="M232 486v-31q0 -37 -21.5 -52.5t-71.5 -15.5h-31q-55 0 -76.5 15.5t-21.5 52.5v34q0 53 24.5 90.5t78.5 70.5h78l-29 -95h10q33 0 46.5 -15t13.5 -54z" />
    <glyph glyph-name="quoteright" unicode="&#x2019;" horiz-adv-x="252" 
d="M20 551v31q0 37 21.5 52.5t71.5 15.5h31q55 0 76.5 -15.5t21.5 -52.5v-34q0 -53 -24.5 -90.5t-78.5 -70.5h-78l29 95h-10q-33 0 -46.5 15t-13.5 54z" />
    <glyph glyph-name="quotesinglbase" unicode="&#x201a;" horiz-adv-x="252" 
d="M10 59v31q0 37 21.5 52.5t71.5 15.5h31q55 0 76.5 -15.5t21.5 -52.5v-34q0 -53 -24.5 -90.5t-78.5 -70.5h-78l29 95h-10q-33 0 -46.5 15t-13.5 54z" />
    <glyph glyph-name="quotedblleft" unicode="&#x201c;" horiz-adv-x="487" 
d="M467 486v-31q0 -37 -21.5 -52.5t-71.5 -15.5h-31q-55 0 -76.5 15.5t-21.5 52.5v34q0 53 24.5 90.5t78.5 70.5h78l-29 -95h10q33 0 46.5 -15t13.5 -54zM232 486v-31q0 -37 -21.5 -52.5t-71.5 -15.5h-31q-55 0 -76.5 15.5t-21.5 52.5v34q0 53 24.5 90.5t78.5 70.5h78
l-29 -95h10q33 0 46.5 -15t13.5 -54z" />
    <glyph glyph-name="quotedblright" unicode="&#x201d;" horiz-adv-x="487" 
d="M20 551v31q0 37 21.5 52.5t71.5 15.5h31q55 0 76.5 -15.5t21.5 -52.5v-34q0 -53 -24.5 -90.5t-78.5 -70.5h-78l29 95h-10q-33 0 -46.5 15t-13.5 54zM255 551v31q0 37 21.5 52.5t71.5 15.5h31q55 0 76.5 -15.5t21.5 -52.5v-34q0 -53 -24.5 -90.5t-78.5 -70.5h-78l29 95
h-10q-33 0 -46.5 15t-13.5 54z" />
    <glyph glyph-name="quotedblbase" unicode="&#x201e;" horiz-adv-x="487" 
d="M10 59v31q0 37 21.5 52.5t71.5 15.5h31q55 0 76.5 -15.5t21.5 -52.5v-34q0 -53 -24.5 -90.5t-78.5 -70.5h-78l29 95h-10q-33 0 -46.5 15t-13.5 54zM245 59v31q0 37 21.5 52.5t71.5 15.5h31q55 0 76.5 -15.5t21.5 -52.5v-34q0 -53 -24.5 -90.5t-78.5 -70.5h-78l29 95h-10
q-33 0 -46.5 15t-13.5 54z" />
    <glyph glyph-name="dagger" unicode="&#x2020;" horiz-adv-x="504" 
d="M15 320v159h123v127h222v-127h129v-159h-129v-457h-222v457h-123z" />
    <glyph glyph-name="daggerdbl" unicode="&#x2021;" horiz-adv-x="504" 
d="M15 0v159h123v161h-123v159h123v127h222v-127h129v-159h-129v-161h129v-159h-129v-137h-222v137h-123z" />
    <glyph glyph-name="bullet" unicode="&#x2022;" horiz-adv-x="451" 
d="M72 301q0 129 154 129q78 0 115.5 -31.5t37.5 -100.5t-36 -98.5t-115.5 -29.5t-117.5 30.5t-38 100.5z" />
    <glyph glyph-name="ellipsis" unicode="&#x2026;" horiz-adv-x="724" 
d="M10 59v31q0 37 21.5 52.5t71.5 15.5h31q55 0 76.5 -15.5t21.5 -52.5v-31q0 -38 -22 -53.5t-78 -15.5h-32q-49 0 -69.5 15t-20.5 54zM252 59v31q0 37 21.5 52.5t71.5 15.5h31q55 0 76.5 -15.5t21.5 -52.5v-31q0 -38 -22 -53.5t-78 -15.5h-32q-49 0 -69.5 15t-20.5 54z
M492 59v31q0 37 21.5 52.5t71.5 15.5h31q55 0 76.5 -15.5t21.5 -52.5v-31q0 -38 -22 -53.5t-78 -15.5h-32q-49 0 -69.5 15t-20.5 54z" />
    <glyph glyph-name="perthousand" unicode="&#x2030;" horiz-adv-x="1473" 
d="M369.5 579.5q40.5 -50.5 40.5 -175t-40.5 -174t-162 -49.5t-162.5 49.5t-41 174t41 175t162.5 50.5t162 -50.5zM1006.5 388.5q40.5 -50.5 40.5 -175t-40.5 -174t-162 -49.5t-162.5 49.5t-41 174t41 175t162.5 50.5t162 -50.5zM1428.5 388.5q40.5 -50.5 40.5 -175
t-40.5 -174t-162 -49.5t-162.5 49.5t-41 174t41 175t162.5 50.5t162 -50.5zM694 621l-128 -621h-207l127 621h208zM1280 107v194h-25v-194h25zM221 298v194h-25v-194h25zM858 107v194h-25v-194h25z" />
    <glyph glyph-name="guilsinglleft" unicode="&#x2039;" horiz-adv-x="346" 
d="M0 210v39l127 185h217l-134 -201l134 -200h-227z" />
    <glyph glyph-name="guilsinglright" unicode="&#x203a;" horiz-adv-x="346" 
d="M346 256v-39l-127 -185h-217l134 201l-134 200h227z" />
    <glyph glyph-name="fraction" unicode="&#x2044;" horiz-adv-x="383" 
d="M393 621l-156 -758h-247l155 758h248z" />
    <glyph glyph-name="Euro" unicode="&#x20ac;" horiz-adv-x="536" 
d="M0 415h63q17 113 89.5 164t220.5 51q64 0 161 -17l-19 -180q-99 11 -121 11q-51 0 -60 -29h180l-8 -112h-191v-15h189l-7 -110h-167q8 -25 61 -25q19 0 120 12l20 -159q-110 -16 -176 -16q-129 0 -198 41.5t-90 146.5h-67v110h61v15h-61v112z" />
    <glyph glyph-name="trademark" unicode="&#x2122;" horiz-adv-x="718" 
d="M270 506h-50v-236h-160v236h-58l5 115h270zM716 270h-137l-5 141h-5l-16 -141h-126l-13 141h-6l-5 -141h-131l15 351h184l18 -128h8l14 128h189z" />
    <glyph glyph-name="partialdiff" unicode="&#x2202;" horiz-adv-x="576" 
d="M271 261v-120h40v120h-40zM229 400h68q0 23 -27 23h-219l-11 198h160q194 0 284 -77.5t90 -257.5q0 -153 -70.5 -224.5t-220.5 -71.5t-215.5 55.5t-65.5 161t55 149.5t172 44z" />
    <glyph glyph-name="product" unicode="&#x220f;" horiz-adv-x="689" 
d="M332 0h-282v419h-48v202h685v-202h-43v-419h-280v419h-32v-419z" />
    <glyph glyph-name="summation" unicode="&#x2211;" horiz-adv-x="560" 
d="M550 436h-169l80 -95v-69l-81 -100h170v-172h-526l-8 137l148 170l-160 160l5 154h541v-185z" />
    <glyph glyph-name="minus" unicode="&#x2212;" horiz-adv-x="445" 
d="M430 186h-415v194h415v-194z" />
    <glyph glyph-name="radical" unicode="&#x221a;" horiz-adv-x="598" 
d="M-14 479h240l32 -209h19l91 520h388l-21 -150h-162q-30 -115 -88.5 -382.5t-88.5 -382.5h-252z" />
    <glyph glyph-name="infinity" unicode="&#x221e;" horiz-adv-x="760" 
d="M222 463q84 0 145 -71q65 71 156.5 71t138.5 -51.5t47 -143.5t-46 -144.5t-140 -52.5t-154 75q-62 -75 -151 -75t-135.5 51t-46.5 143t51 145t135 53zM510 211q22 0 22 55.5t-22.5 55.5t-57.5 -58q34 -53 58 -53zM233 322q-20 0 -20 -55.5t20 -55.5q25 0 59 56
q-34 55 -59 55z" />
    <glyph glyph-name="integral" unicode="&#x222b;" horiz-adv-x="400" 
d="M80 172l17 378q6 123 58 181.5t182 58.5h85l-13 -201q-46 0 -57.5 -14.5t-13.5 -61.5l-19 -395q-7 -140 -60.5 -191.5t-199.5 -51.5h-81l19 211q52 0 66.5 16.5t16.5 69.5z" />
    <glyph glyph-name="approxequal" unicode="&#x2248;" horiz-adv-x="482" 
d="M446 456v-32q0 -75 -26.5 -115t-105.5 -40q-46 0 -98 18v-23h-180v33q0 76 28 115.5t100 39.5q35 0 102 -20v24h180zM446 250v-32q0 -75 -26.5 -115t-105.5 -40q-46 0 -98 18v-23h-180v33q0 76 28 115.5t100 39.5q35 0 102 -20v24h180z" />
    <glyph glyph-name="notequal" unicode="&#x2260;" horiz-adv-x="448" 
d="M1 -26l48 112h-29v160h99l10 24h-109v159h178l45 103h199l-44 -103h30v-159h-99l-10 -24h109v-160h-178l-48 -112h-201z" />
    <glyph glyph-name="lessequal" unicode="&#x2264;" horiz-adv-x="473" 
d="M458 151l-438 88v251l438 113v-221l-198 -12v-8l198 -11v-200zM458 -44h-443v194h443v-194z" />
    <glyph glyph-name="greaterequal" unicode="&#x2265;" horiz-adv-x="473" 
d="M453 239l-438 -88v200l198 11v8l-198 12v221l438 -113v-251zM458 -44h-443v194h443v-194z" />
    <glyph glyph-name="lozenge" unicode="&#x25ca;" horiz-adv-x="527" 
d="M515 287l-166 -333h-172l-165 331l168 335h169zM298 287l-35 80l-33 -79l34 -82z" />
    <glyph glyph-name="ff" unicode="&#xfb00;" horiz-adv-x="616" 
d="M505 650q38 0 126 -6l-9 -153h-42v-17h41l-6 -149h-31v-325h-262v325h-33v-325h-262v325h-27v149h27v29q0 75 39.5 111t133.5 36q50 0 118 -6l-7 -153h-26v-17h37v19q0 157 183 157z" />
    <glyph glyph-name="fi" unicode="&#xfb01;" horiz-adv-x="595" 
d="M584 0h-262v315h-33v-315h-262v325h-27v149h27v9q0 157 183 157q52 0 103 -6l-6 -143h-22v-27h299v-464zM323 556v11q0 78 113 78h31q118 0 118 -78v-11q0 -79 -118 -79h-32q-112 0 -112 79z" />
    <glyph glyph-name="fl" unicode="&#xfb02;" horiz-adv-x="609" 
d="M210 640q39 0 102 -9l-6 -140h-21v-27h39v176h257v-450q0 -24 26 -24l-8 -176h-101q-176 0 -176 135v190h-33v-315h-262v325h-27v149h27v9q0 157 183 157z" />
    <glyph glyph-name="ffi" unicode="&#xfb03;" horiz-adv-x="889" 
d="M879 0h-262v315h-33v-315h-262v325h-33v-325h-262v325h-27v149h27v29q0 75 39.5 111t133.5 36q50 0 118 -6l-7 -153h-26v-17h37v29q0 75 39.5 111t133.5 36q62 0 113 -6l-6 -153h-22v-27h299v-464zM617 556v11q0 78 113 78h31q118 0 118 -78v-11q0 -79 -118 -79h-32
q-112 0 -112 79z" />
    <glyph glyph-name="ffl" unicode="&#xfb04;" horiz-adv-x="904" 
d="M495 650q62 0 113 -6l-6 -153h-22v-27h37v176h259v-450q0 -24 26 -24l-8 -176h-101q-176 0 -176 135v190h-33v-315h-262v325h-33v-325h-262v325h-27v149h27v29q0 75 39.5 111t133.5 36q50 0 118 -6l-7 -153h-26v-17h37v29q0 75 39.5 111t133.5 36z" />
    <glyph glyph-name="fj" horiz-adv-x="594" 
d="M584 464v-462q0 -78 -46.5 -108.5t-160.5 -30.5h-70l-9 137h24v315h-33v-315h-262v325h-27v149h27v29q0 75 39.5 111t133.5 36q62 0 113 -6l-6 -153h-22v-27h299zM322 557v11q0 78 113 78h31q118 0 118 -78v-11q0 -79 -118 -79h-32q-112 0 -112 79z" />
    <glyph glyph-name="commaaccent" 
d="M153 -89v25q0 55 76 55h35q44 0 61.5 -14t17.5 -50t-12 -57t-48 -45h-97l27 38q-33 0 -46.5 10t-13.5 38z" />
    <glyph glyph-name="foundryicon" horiz-adv-x="1241" 
d="M186 157l-146 143l146 141l40 -32l-88 -84h248q-6 30 -6 62q0 82 42.5 132t112.5 50q49 0 78.5 -16.5t54.5 -51.5q46 68 136 68q71 0 112 -50t41 -132q0 -27 -7 -62h201v116h50v-284h-50v116h-216q-40 -102 -131 -176t-138.5 -74t-136.5 73.5t-128 176.5h-262l87 -85z
M668 73q27 4 66 30.5t77.5 66.5t66 96.5t27.5 117t-30 99t-85 38.5q-83 0 -114 -84h-16q-31 84 -114 84q-54 0 -84 -39t-30 -106q0 -24 5 -51h198v-52h-180q33 -77 99.5 -135t113.5 -65z" />
    <glyph glyph-name="CR" horiz-adv-x="0" 
 />
  </font>
</defs>
</svg>
